<svg width="13" height="12" viewBox="0 0 13 12" fill="none" xmlns="http://www.w3.org/2000/svg">
    <path d="M5.9295 11.4515C5.89017 11.4515 5.85128 11.4434 5.81525 11.4276C5.77922 11.4119 5.74685 11.3888 5.72016 11.3599L0.0757421 5.25431C0.038115 5.2136 0.0131705 5.16281 0.00396174 5.10815C-0.00524705 5.05349 0.00167919 4.99733 0.0238928 4.94654C0.0461065 4.89575 0.082644 4.85255 0.129033 4.8222C0.175423 4.79186 0.229652 4.7757 0.285084 4.7757H3.00199C3.04279 4.7757 3.0831 4.78446 3.12022 4.80137C3.15734 4.81828 3.19041 4.84296 3.21718 4.87374L5.10356 7.04396C5.30743 6.60817 5.70208 5.88256 6.39462 4.99838C7.41844 3.69124 9.32279 1.76885 12.5809 0.0334551C12.6439 -7.94136e-05 12.7171 -0.00878295 12.7862 0.00906319C12.8553 0.0269093 12.9152 0.0700079 12.954 0.129848C12.9929 0.189689 13.0079 0.261922 12.9961 0.332283C12.9843 0.402645 12.9465 0.466021 12.8902 0.509897C12.8778 0.519619 11.6216 1.50888 10.1758 3.32088C8.84526 4.98837 7.0765 7.71497 6.20615 11.235C6.19086 11.2968 6.1553 11.3518 6.10514 11.391C6.05498 11.4303 5.99312 11.4516 5.92941 11.4516L5.9295 11.4515Z" fill="#03E7A2"/>
</svg>
